<svg width="274.4px" height="131.6px" xmlns="http://www.w3.org/2000/svg" viewBox="112.80000000000001 9.200000000000003 274.4 131.6" style="background: rgba(0, 0, 0, 0); user-select: auto;" preserveAspectRatio="xMidYMid"><defs style="user-select: auto;"><filter id="editing-extrusion" x="-100%" y="-100%" width="300%" height="300%" style="user-select: auto;"><feFlood result="color1" flood-color="#444" style="user-select: auto;"></feFlood><feConvolveMatrix order="8,8" divisor="1" kernelMatrix="1 0 0 0 0 0 0 0 0 1 0 0 0 0 0 0 0 0 1 0 0 0 0 0 0 0 0 1 0 0 0 0 0 0 0 0 1 0 0 0 0 0 0 0 0 1 0 0 0 0 0 0 0 0 1 0 0 0 0 0 0 0 0 1" in="SourceAlpha" result="extrude" style="user-select: auto;"></feConvolveMatrix><feComposite in="color1" in2="extrude" result="comp-extrude" operator="in" style="user-select: auto;"></feComposite><feOffset dx="4" dy="4" in="comp-extrude" result="offset-extrude" style="user-select: auto;"></feOffset><feMerge style="user-select: auto;"><feMergeNode in="offset-extrude" style="user-select: auto;"></feMergeNode><feMergeNode in="SourceGraphic" style="user-select: auto;"></feMergeNode></feMerge></filter></defs><g filter="url(#editing-extrusion)"><g transform="translate(155.37501001358032, 99.43500137329102)"><path d="M13.19-16.63L13.19 0L5.69 0L5.69-46.06L18.94-46.06L18.94-46.06Q21.88-46.06 24.75-45.13L24.75-45.13L24.75-45.13Q27.63-44.19 29.91-42.31L29.91-42.31L29.91-42.31Q32.19-40.44 33.59-37.78L33.59-37.78L33.59-37.78Q35-35.13 35-31.81L35-31.81L35-31.81Q35-28.31 33.81-25.47L33.81-25.47L33.81-25.47Q32.63-22.63 30.50-20.69L30.50-20.69L30.50-20.69Q28.38-18.75 25.38-17.69L25.38-17.69L25.38-17.69Q22.38-16.63 18.75-16.63L18.75-16.63L13.19-16.63ZM18.81-40.38L13.19-40.38L13.19-22.13L20.06-22.13L20.06-22.13Q21.44-22.13 22.78-22.59L22.78-22.59L22.78-22.59Q24.13-23.06 25.25-24.13L25.25-24.13L25.25-24.13Q26.38-25.19 27.06-27.09L27.06-27.09L27.06-27.09Q27.75-29 27.75-31.81L27.75-31.81L27.75-31.81Q27.75-32.94 27.44-34.41L27.44-34.41L27.44-34.41Q27.13-35.88 26.16-37.22L26.16-37.22L26.16-37.22Q25.19-38.56 23.44-39.47L23.44-39.47L23.44-39.47Q21.69-40.38 18.81-40.38L18.81-40.38ZM58.88-35.44L58.88-35.44L58.88-35.44Q62.50-35.44 65.44-34.03L65.44-34.03L65.44-34.03Q68.38-32.63 70.44-30.19L70.44-30.19L70.44-30.19Q72.50-27.75 73.63-24.50L73.63-24.50L73.63-24.50Q74.75-21.25 74.75-17.50L74.75-17.50L74.75-17.50Q74.75-13.75 73.56-10.47L73.56-10.47L73.56-10.47Q72.38-7.19 70.22-4.78L70.22-4.78L70.22-4.78Q68.06-2.38 65.09-1.03L65.09-1.03L65.09-1.03Q62.13 0.31 58.50 0.31L58.50 0.31L58.50 0.31Q54.81 0.31 51.78-1.06L51.78-1.06L51.78-1.06Q48.75-2.44 46.66-4.88L46.66-4.88L46.66-4.88Q44.56-7.31 43.44-10.56L43.44-10.56L43.44-10.56Q42.31-13.81 42.31-17.63L42.31-17.63L42.31-17.63Q42.31-21.44 43.53-24.75L43.53-24.75L43.53-24.75Q44.75-28.06 46.91-30.41L46.91-30.41L46.91-30.41Q49.06-32.75 52.13-34.09L52.13-34.09L52.13-34.09Q55.19-35.44 58.88-35.44ZM58.38-5.63L58.38-5.63L58.38-5.63Q60.25-5.63 61.78-6.53L61.78-6.53L61.78-6.53Q63.31-7.44 64.41-9.03L64.41-9.03L64.41-9.03Q65.50-10.63 66.16-12.81L66.16-12.81L66.16-12.81Q66.81-15 66.81-17.50L66.81-17.50L66.81-17.50Q66.81-20 66.22-22.19L66.22-22.19L66.22-22.19Q65.63-24.38 64.59-26.03L64.59-26.03L64.59-26.03Q63.56-27.69 62.06-28.69L62.06-28.69L62.06-28.69Q60.56-29.69 58.69-29.69L58.69-29.69L58.69-29.69Q56.81-29.69 55.25-28.75L55.25-28.75L55.25-28.75Q53.69-27.81 52.59-26.22L52.59-26.22L52.59-26.22Q51.50-24.63 50.91-22.47L50.91-22.47L50.91-22.47Q50.31-20.31 50.31-17.81L50.31-17.81L50.31-17.81Q50.31-15.31 50.84-13.09L50.84-13.09L50.84-13.09Q51.38-10.88 52.44-9.25L52.44-9.25L52.44-9.25Q53.50-7.63 54.97-6.63L54.97-6.63L54.97-6.63Q56.44-5.63 58.38-5.63ZM92.06-48.56L92.06-10.75L92.06-10.75Q92.06-8.63 92.63-7.41L92.63-7.41L92.63-7.41Q93.19-6.19 94.19-5.59L94.19-5.59L94.19-5.59Q95.19-5 96.47-4.81L96.47-4.81L96.47-4.81Q97.75-4.63 99.25-4.63L99.25-4.63L99.25 0L99.25 0Q98.44 0.13 97.56 0.19L97.56 0.19L97.56 0.19Q96.88 0.25 95.94 0.28L95.94 0.28L95.94 0.28Q95 0.31 94.06 0.31L94.06 0.31L94.06 0.31Q93.13 0.31 92.19 0.25L92.19 0.25L92.19 0.25Q91.25 0.19 90.50 0.06L90.50 0.06L90.50 0.06Q88.38-0.38 87.19-1.81L87.19-1.81L87.19-1.81Q86-3.25 85.38-5.03L85.38-5.03L85.38-5.03Q84.75-6.81 84.59-8.50L84.59-8.50L84.59-8.50Q84.44-10.19 84.44-11.13L84.44-11.13L84.44-11.88L84.44-48.56L92.06-48.56ZM114.75-48.56L114.75-10.75L114.75-10.75Q114.75-8.63 115.31-7.41L115.31-7.41L115.31-7.41Q115.88-6.19 116.88-5.59L116.88-5.59L116.88-5.59Q117.88-5 119.16-4.81L119.16-4.81L119.16-4.81Q120.44-4.63 121.94-4.63L121.94-4.63L121.94 0L121.94 0Q121.13 0.13 120.25 0.19L120.25 0.19L120.25 0.19Q119.56 0.25 118.63 0.28L118.63 0.28L118.63 0.28Q117.69 0.31 116.75 0.31L116.75 0.31L116.75 0.31Q115.81 0.31 114.88 0.25L114.88 0.25L114.88 0.25Q113.94 0.19 113.19 0.06L113.19 0.06L113.19 0.06Q111.06-0.38 109.88-1.81L109.88-1.81L109.88-1.81Q108.69-3.25 108.06-5.03L108.06-5.03L108.06-5.03Q107.44-6.81 107.28-8.50L107.28-8.50L107.28-8.50Q107.13-10.19 107.13-11.13L107.13-11.13L107.13-11.88L107.13-48.56L114.75-48.56ZM155.19-46.06L155.19 0L147.56 0L147.56-46.06L155.19-46.06ZM176.38-30.13L176.38-10.69L176.38-10.69Q176.38-8.56 176.94-7.38L176.94-7.38L176.94-7.38Q177.50-6.19 178.53-5.56L178.53-5.56L178.53-5.56Q179.56-4.94 180.84-4.78L180.84-4.78L180.84-4.78Q182.13-4.63 183.56-4.63L183.56-4.63L183.56 0L183.56 0Q182.75 0.13 181.94 0.19L181.94 0.19L181.94 0.19Q181.25 0.25 180.28 0.28L180.28 0.28L180.28 0.28Q179.31 0.31 178.38 0.31L178.38 0.31L178.38 0.31Q177.44 0.31 176.47 0.25L176.47 0.25L176.47 0.25Q175.50 0.19 174.81 0.06L174.81 0.06L174.81 0.06Q172.69-0.31 171.50-1.78L171.50-1.78L171.50-1.78Q170.31-3.25 169.72-5.03L169.72-5.03L169.72-5.03Q169.13-6.81 168.97-8.50L168.97-8.50L168.97-8.50Q168.81-10.19 168.81-11.13L168.81-11.13L168.81-30.13L164.19-30.13L164.19-35.25L168.81-35.25L168.81-45.25L176.38-45.25L176.38-35.25L182-35.25L182-30.13L176.38-30.13Z" fill="#ccc"></path></g></g><style>text {
  font-size: 64px;
  font-family: Arial Black;
  dominant-baseline: central;
  text-anchor: middle;
}</style></svg>